<svg width="48" height="48" viewBox="0 0 48 48" fill="none" xmlns="http://www.w3.org/2000/svg">
<path d="M15.4922 15.375L29.1396 29.25M36.8854 37.125V45L29.1396 37.125V29.25M36.8854 37.125L29.1396 29.25M36.8854 37.125H45.0001L36.8854 29.25H29.1396" stroke="white" stroke-width="2"/>
<path d="M18.1797 15C18.1797 16.5344 16.9605 17.75 15.4912 17.75C14.0219 17.75 12.8027 16.5344 12.8027 15C12.8027 13.4656 14.0219 12.25 15.4912 12.25C16.9605 12.25 18.1797 13.4656 18.1797 15Z" stroke="white" stroke-width="2"/>
<path d="M23.3429 15.375C23.3429 20.016 19.6466 23.75 15.1216 23.75C10.5967 23.75 6.90039 20.016 6.90039 15.375C6.90039 10.734 10.5967 7 15.1216 7C19.6466 7 23.3429 10.734 23.3429 15.375Z" stroke="white" stroke-width="2"/>
<path d="M29.2456 15.375C29.2456 23.3298 22.9071 29.75 15.1228 29.75C7.33853 29.75 1 23.3298 1 15.375C1 7.42025 7.33853 1 15.1228 1C22.9071 1 29.2456 7.42025 29.2456 15.375Z" stroke="white" stroke-width="2"/>
</svg>
