<svg width="42" height="52" viewBox="0 0 42 52" fill="none" xmlns="http://www.w3.org/2000/svg">
<path d="M17.3047 23.5851L20.7605 20.1558" stroke="white" stroke-width="2"/>
<path d="M34.5838 52V37.3026C34.5838 37.3026 35.9315 35.9083 36.5586 34.8531C37.4877 33.2897 37.4276 32.1543 38.0397 30.4439C38.5909 28.9035 39.0326 28.0858 39.5208 26.5246C39.9919 25.0178 40.2468 24.1615 40.5082 22.6053C41.047 19.3971 41.2714 17.4399 40.5082 14.2768C40.2242 13.1 39.994 12.4525 39.5208 11.3373C38.6483 9.28097 38.0506 8.10737 36.5586 6.43819C34.8185 4.49141 33.5146 3.59724 31.128 2.5189C28.2716 1.22829 26.3611 0.852194 23.2289 1.04916C19.7601 1.26729 17.7461 2.10249 14.8361 3.98863C10.9285 6.52133 8.59796 8.81274 7.43064 13.297C6.70731 16.0756 7.43064 20.6456 7.43064 20.6456L2 30.4439H7.43064V37.3026C7.43064 37.3026 7.21877 38.5264 7.43064 39.2623C7.80517 40.5631 8.73009 41.0158 9.89911 41.7119C12.379 43.1884 17.3045 41.7119 17.3045 41.7119M20.7604 41.7119H17.3045M17.3045 41.7119V52" stroke="white" stroke-width="2"/>
<path d="M12.3672 17.2163H20.2663" stroke="white" stroke-width="2"/>
<path d="M17.3047 11.3374L20.7605 14.7668" stroke="white" stroke-width="2"/>
<path d="M23.2285 6.43823V14.2768" stroke="white" stroke-width="2"/>
<path d="M29.6473 11.3374L26.1914 14.7668" stroke="white" stroke-width="2"/>
<path d="M23.2285 27.9944V20.1558" stroke="white" stroke-width="2"/>
<path d="M29.6473 23.5851L26.1914 20.1558" stroke="white" stroke-width="2"/>
<path d="M34.0905 17.2163H26.1914" stroke="white" stroke-width="2"/>
</svg>
