<svg width="47" height="47" viewBox="0 0 47 47" fill="none" xmlns="http://www.w3.org/2000/svg">
<path d="M1 21.2336V46H46V21.2336M1 21.2336V10.8318H46V21.2336M1 21.2336C1 21.2336 2.18566 26.1869 6.43956 26.1869C8.91209 26.1869 15.8352 26.1869 15.8352 26.1869M46 21.2336C46 21.2336 43.786 26.1869 41.0549 26.1869C35.1209 26.1869 31.1648 26.1869 31.1648 26.1869" stroke="white" stroke-width="2"/>
<path d="M13.8565 10.8315C13.8565 10.8315 13.6992 8.28525 14.351 6.86893C14.8687 5.74408 15.3235 4.86229 16.3288 3.89722C17.4529 2.81815 17.7502 2.52582 19.2958 1.91592C21.6316 0.994226 23.8258 0.660316 26.2189 1.42036C27.4538 1.81256 28.1873 2.07991 29.1859 2.90643C30.1846 3.73296 30.1752 3.89686 30.6695 4.3923C31.1637 4.88774 31.6959 5.83822 32.1532 6.86893C32.8 8.32657 33.1422 10.8315 33.1422 10.8315" stroke="white" stroke-width="2"/>
<rect x="20.791" y="23.7197" width="5.91209" height="4.93457" stroke="white" stroke-width="2"/>
</svg>
