<svg width="16" height="22" viewBox="0 0 16 22" fill="none" xmlns="http://www.w3.org/2000/svg">
<path d="M4.03764 15C5.44999 17.5559 7.98673 21 7.98673 21C7.98673 21 9.79289 18 10.4552 17C11.3791 15.6051 12.3508 14 12.9241 13C13.4975 12 14.6899 10.5 14.8985 9C15.0329 8.03323 15.0348 7.4665 14.8985 6.5C14.726 5.27747 13.9109 4 13.4173 3.5C12.9237 3 12.4295 2.5 11.4426 2C10.4557 1.5 8.97405 1 7.98673 1C6.99942 1 4.73259 1.63439 4.03764 2C2.70136 2.70301 2.13792 3.49979 1.56891 4.5C1.00001 5.5 0.907478 7.23995 1.07467 9C1.21716 10.5 3.76134 14.5 4.03764 15Z" stroke="white"/>
<path d="M9.46127 8C9.46127 8.83443 8.79503 9.5 7.9865 9.5C7.17796 9.5 6.51172 8.83443 6.51172 8C6.51172 7.16557 7.17796 6.5 7.9865 6.5C8.79503 6.5 9.46127 7.16557 9.46127 8Z" fill="white" stroke="white"/>
</svg>
