<svg width="20" height="21" viewBox="0 0 20 21" fill="none" xmlns="http://www.w3.org/2000/svg">
<path d="M6.59775 1.53924C6.11435 0.905516 2.54191 0.73975 1.76378 1.53924C0.985654 2.33874 0.761623 4.64174 1.28024 6.50707C1.62813 7.75836 2.48898 8.99087 2.73057 9.4874C3.2969 10.6514 3.97902 11.3735 4.66416 12.468C5.31814 13.5126 6.59775 14.9518 6.59775 14.9518C6.59775 14.9518 8.54796 16.6515 9.98152 17.4355C11.4054 18.2142 13.3644 19.3017 13.8482 19.4232C14.3321 19.5448 16.7309 20.6579 18.1993 19.4233C19.1661 18.6104 19.1656 14.1845 18.6827 13.9589C18.1997 13.7333 17.0847 13.6726 16.2657 13.4622C15.4467 13.2517 14.8155 12.9647 14.3321 12.9647C13.8487 12.9647 13.8487 15.4492 11.9151 15.4492C11.4313 15.4492 9.29269 14.6348 8.04794 13.4622C6.61532 12.1125 5.59419 9.48875 5.63142 8.99133C5.75427 7.35006 8.07634 7.00294 8.04794 6.50684C8.01954 6.01074 7.84399 5.33917 7.56457 4.52049C7.18451 3.40697 7.08135 2.17324 6.59775 1.53924Z" stroke="white"/>
</svg>
