<svg width="282" height="258" viewBox="0 0 282 258" fill="none" xmlns="http://www.w3.org/2000/svg">
<circle cx="108.637" cy="72.9059" r="3" fill="#F67216"/>
<circle cx="94" cy="134" r="3" fill="#F67216"/>
<circle cx="184" cy="78" r="3" fill="#F67216"/>
<circle cx="184" cy="134" r="3" fill="#F67216"/>
<circle cx="112" cy="183" r="3" fill="#F67216"/>
<ellipse rx="1.07233" ry="1.14055" transform="matrix(0.545203 -0.838304 0.89139 0.453237 64.6013 256.185)" fill="#C4C4C4"/>
<ellipse rx="1.07233" ry="1.14055" transform="matrix(0.545203 -0.838304 0.89139 0.453237 67.2322 252.14)" fill="#C4C4C4"/>
<ellipse rx="1.07233" ry="1.14055" transform="matrix(0.545203 -0.838304 0.89139 0.453237 69.863 248.094)" fill="#C4C4C4"/>
<ellipse rx="1.07233" ry="1.14055" transform="matrix(0.545203 -0.838304 0.89139 0.453237 72.4939 244.049)" fill="#C4C4C4"/>
<ellipse rx="1.07233" ry="1.14055" transform="matrix(0.545203 -0.838304 0.89139 0.453237 75.1248 240.004)" fill="#C4C4C4"/>
<ellipse rx="1.07233" ry="1.14055" transform="matrix(0.545203 -0.838304 0.89139 0.453237 77.7556 235.959)" fill="#C4C4C4"/>
<ellipse rx="1.07233" ry="1.14055" transform="matrix(0.545203 -0.838304 0.89139 0.453237 80.3865 231.914)" fill="#C4C4C4"/>
<ellipse rx="1.07233" ry="1.14055" transform="matrix(0.545203 -0.838304 0.89139 0.453237 83.0173 227.868)" fill="#C4C4C4"/>
<ellipse rx="1.07233" ry="1.14055" transform="matrix(0.545203 -0.838304 0.89139 0.453237 85.6482 223.823)" fill="#C4C4C4"/>
<ellipse rx="1.07233" ry="1.14055" transform="matrix(0.545203 -0.838304 0.89139 0.453237 88.279 219.778)" fill="#C4C4C4"/>
<ellipse rx="1.07233" ry="1.14055" transform="matrix(0.545203 -0.838304 0.89139 0.453237 90.9104 215.732)" fill="#C4C4C4"/>
<ellipse rx="1.07233" ry="1.14055" transform="matrix(0.545203 -0.838304 0.89139 0.453237 93.5408 211.687)" fill="#C4C4C4"/>
<ellipse rx="1.07233" ry="1.14055" transform="matrix(0.545203 -0.838304 0.89139 0.453237 96.1721 207.642)" fill="#C4C4C4"/>
<ellipse rx="1.07233" ry="1.14055" transform="matrix(0.545203 -0.838304 0.89139 0.453237 98.8025 203.597)" fill="#C4C4C4"/>
<ellipse rx="1.07233" ry="1.14055" transform="matrix(0.545203 -0.838304 0.89139 0.453237 101.434 199.552)" fill="#C4C4C4"/>
<ellipse rx="1.07233" ry="1.14055" transform="matrix(0.545203 -0.838304 0.89139 0.453237 104.064 195.506)" fill="#C4C4C4"/>
<ellipse rx="1.07233" ry="1.14055" transform="matrix(0.545203 -0.838304 0.89139 0.453237 106.696 191.461)" fill="#C4C4C4"/>
<ellipse rx="1.07233" ry="1.14055" transform="matrix(0.545203 -0.838304 0.89139 0.453237 109.326 187.416)" fill="#C4C4C4"/>
<ellipse rx="1.17218" ry="1.03766" transform="matrix(0.998139 0.0609752 -0.0779004 0.996961 190.458 134.007)" fill="#C4C4C4"/>
<ellipse rx="1.17218" ry="1.03766" transform="matrix(0.998139 0.0609752 -0.0779004 0.996961 195.723 134.329)" fill="#C4C4C4"/>
<ellipse rx="1.17218" ry="1.03766" transform="matrix(0.998139 0.0609752 -0.0779004 0.996961 200.989 134.65)" fill="#C4C4C4"/>
<ellipse rx="1.17218" ry="1.03766" transform="matrix(0.998139 0.0609752 -0.0779004 0.996961 206.253 134.972)" fill="#C4C4C4"/>
<ellipse rx="1.17218" ry="1.03766" transform="matrix(0.998139 0.0609752 -0.0779004 0.996961 211.518 135.294)" fill="#C4C4C4"/>
<ellipse rx="1.17218" ry="1.03766" transform="matrix(0.998139 0.0609752 -0.0779004 0.996961 216.783 135.615)" fill="#C4C4C4"/>
<ellipse rx="1.17218" ry="1.03766" transform="matrix(0.998139 0.0609752 -0.0779004 0.996961 222.048 135.937)" fill="#C4C4C4"/>
<ellipse rx="1.17218" ry="1.03766" transform="matrix(0.998139 0.0609752 -0.0779004 0.996961 227.313 136.259)" fill="#C4C4C4"/>
<ellipse rx="1.17218" ry="1.03766" transform="matrix(0.998139 0.0609752 -0.0779004 0.996961 232.578 136.58)" fill="#C4C4C4"/>
<ellipse rx="1.17218" ry="1.03766" transform="matrix(0.998139 0.0609752 -0.0779004 0.996961 237.843 136.902)" fill="#C4C4C4"/>
<ellipse rx="1.17218" ry="1.03766" transform="matrix(0.998139 0.0609752 -0.0779004 0.996961 243.108 137.223)" fill="#C4C4C4"/>
<ellipse rx="1.17218" ry="1.03766" transform="matrix(0.998139 0.0609752 -0.0779004 0.996961 248.373 137.545)" fill="#C4C4C4"/>
<ellipse rx="1.17218" ry="1.03766" transform="matrix(0.998139 0.0609752 -0.0779004 0.996961 253.638 137.867)" fill="#C4C4C4"/>
<ellipse rx="1.17218" ry="1.03766" transform="matrix(0.998139 0.0609752 -0.0779004 0.996961 258.903 138.188)" fill="#C4C4C4"/>
<ellipse rx="1.17218" ry="1.03766" transform="matrix(0.998139 0.0609752 -0.0779004 0.996961 264.168 138.51)" fill="#C4C4C4"/>
<ellipse rx="1.17218" ry="1.03766" transform="matrix(0.998139 0.0609752 -0.0779004 0.996961 269.433 138.832)" fill="#C4C4C4"/>
<ellipse rx="1.17218" ry="1.03766" transform="matrix(0.998139 0.0609752 -0.0779004 0.996961 274.698 139.153)" fill="#C4C4C4"/>
<ellipse rx="1.17218" ry="1.03766" transform="matrix(0.998139 0.0609752 -0.0779004 0.996961 279.963 139.475)" fill="#C4C4C4"/>
<ellipse rx="1.08298" ry="1.13044" transform="matrix(0.617325 0.786709 -0.852382 0.52292 52.6317 1.44312)" fill="#C4C4C4"/>
<ellipse rx="1.08298" ry="1.13044" transform="matrix(0.617325 0.786709 -0.852382 0.52292 55.64 5.27711)" fill="#C4C4C4"/>
<ellipse rx="1.08298" ry="1.13044" transform="matrix(0.617325 0.786709 -0.852382 0.52292 58.6488 9.11097)" fill="#C4C4C4"/>
<ellipse rx="1.08298" ry="1.13044" transform="matrix(0.617325 0.786709 -0.852382 0.52292 61.6571 12.945)" fill="#C4C4C4"/>
<ellipse rx="1.08298" ry="1.13044" transform="matrix(0.617325 0.786709 -0.852382 0.52292 64.6654 16.7789)" fill="#C4C4C4"/>
<ellipse rx="1.08298" ry="1.13044" transform="matrix(0.617325 0.786709 -0.852382 0.52292 67.6742 20.6128)" fill="#C4C4C4"/>
<ellipse rx="1.08298" ry="1.13044" transform="matrix(0.617325 0.786709 -0.852382 0.52292 70.6825 24.4468)" fill="#C4C4C4"/>
<ellipse rx="1.08298" ry="1.13044" transform="matrix(0.617325 0.786709 -0.852382 0.52292 73.6913 28.2808)" fill="#C4C4C4"/>
<ellipse rx="1.08298" ry="1.13044" transform="matrix(0.617325 0.786709 -0.852382 0.52292 76.6996 32.1148)" fill="#C4C4C4"/>
<ellipse rx="1.08298" ry="1.13044" transform="matrix(0.617325 0.786709 -0.852382 0.52292 79.7079 35.9486)" fill="#C4C4C4"/>
<ellipse rx="1.08298" ry="1.13044" transform="matrix(0.617325 0.786709 -0.852382 0.52292 82.7167 39.7826)" fill="#C4C4C4"/>
<ellipse rx="1.08298" ry="1.13044" transform="matrix(0.617325 0.786709 -0.852382 0.52292 85.725 43.6166)" fill="#C4C4C4"/>
<ellipse rx="1.08298" ry="1.13044" transform="matrix(0.617325 0.786709 -0.852382 0.52292 88.7333 47.4506)" fill="#C4C4C4"/>
<ellipse rx="1.08298" ry="1.13044" transform="matrix(0.617325 0.786709 -0.852382 0.52292 91.7416 51.2844)" fill="#C4C4C4"/>
<ellipse rx="1.08298" ry="1.13044" transform="matrix(0.617325 0.786709 -0.852382 0.52292 94.7504 55.1184)" fill="#C4C4C4"/>
<ellipse rx="1.08298" ry="1.13044" transform="matrix(0.617325 0.786709 -0.852382 0.52292 97.7587 58.9524)" fill="#C4C4C4"/>
<ellipse rx="1.08298" ry="1.13044" transform="matrix(0.617325 0.786709 -0.852382 0.52292 100.767 62.7864)" fill="#C4C4C4"/>
<ellipse rx="1.08297" ry="1.13044" transform="matrix(0.617325 0.786709 -0.852382 0.52292 103.776 66.6202)" fill="#C4C4C4"/>
<ellipse rx="1.17188" ry="1.038" transform="matrix(0.963826 -0.266533 0.286401 0.95811 1.42677 160.201)" fill="#C4C4C4"/>
<ellipse rx="1.17188" ry="1.038" transform="matrix(0.963826 -0.266533 0.286401 0.95811 6.50929 158.796)" fill="#C4C4C4"/>
<ellipse rx="1.17188" ry="1.038" transform="matrix(0.963826 -0.266533 0.286401 0.95811 11.5923 157.39)" fill="#C4C4C4"/>
<ellipse rx="1.17188" ry="1.038" transform="matrix(0.963826 -0.266533 0.286401 0.95811 16.6748 155.985)" fill="#C4C4C4"/>
<ellipse rx="1.17188" ry="1.038" transform="matrix(0.963826 -0.266533 0.286401 0.95811 21.7573 154.579)" fill="#C4C4C4"/>
<ellipse rx="1.17188" ry="1.038" transform="matrix(0.963826 -0.266533 0.286401 0.95811 26.8403 153.173)" fill="#C4C4C4"/>
<ellipse rx="1.17188" ry="1.038" transform="matrix(0.963826 -0.266533 0.286401 0.95811 31.9229 151.768)" fill="#C4C4C4"/>
<ellipse rx="1.17188" ry="1.038" transform="matrix(0.963826 -0.266533 0.286401 0.95811 37.0059 150.362)" fill="#C4C4C4"/>
<ellipse rx="1.17188" ry="1.038" transform="matrix(0.963826 -0.266533 0.286401 0.95811 42.0884 148.957)" fill="#C4C4C4"/>
<ellipse rx="1.17188" ry="1.038" transform="matrix(0.963826 -0.266533 0.286401 0.95811 47.1714 147.551)" fill="#C4C4C4"/>
<ellipse rx="1.17188" ry="1.038" transform="matrix(0.963826 -0.266533 0.286401 0.95811 52.2539 146.146)" fill="#C4C4C4"/>
<ellipse rx="1.17188" ry="1.038" transform="matrix(0.963826 -0.266533 0.286401 0.95811 57.3364 144.74)" fill="#C4C4C4"/>
<ellipse rx="1.17188" ry="1.038" transform="matrix(0.963826 -0.266533 0.286401 0.95811 62.419 143.335)" fill="#C4C4C4"/>
<ellipse rx="1.17188" ry="1.038" transform="matrix(0.963826 -0.266533 0.286401 0.95811 67.502 141.929)" fill="#C4C4C4"/>
<ellipse rx="1.17188" ry="1.038" transform="matrix(0.963826 -0.266533 0.286401 0.95811 72.5845 140.523)" fill="#C4C4C4"/>
<ellipse rx="1.17188" ry="1.038" transform="matrix(0.963826 -0.266533 0.286401 0.95811 77.6675 139.118)" fill="#C4C4C4"/>
<ellipse rx="1.17188" ry="1.038" transform="matrix(0.963826 -0.266533 0.286401 0.95811 82.75 137.712)" fill="#C4C4C4"/>
<ellipse rx="1.17188" ry="1.038" transform="matrix(0.963826 -0.266533 0.286401 0.95811 87.8325 136.307)" fill="#C4C4C4"/>
<ellipse rx="1.1053" ry="1.10863" transform="matrix(0.740992 -0.671514 0.757174 0.653213 188.658 73.2465)" fill="#C4C4C4"/>
<ellipse rx="1.1053" ry="1.10863" transform="matrix(0.740992 -0.671514 0.757174 0.653213 192.344 69.9065)" fill="#C4C4C4"/>
<ellipse rx="1.1053" ry="1.10863" transform="matrix(0.740992 -0.671514 0.757174 0.653213 196.03 66.5664)" fill="#C4C4C4"/>
<ellipse rx="1.1053" ry="1.10863" transform="matrix(0.740992 -0.671514 0.757174 0.653213 199.715 63.2265)" fill="#C4C4C4"/>
<ellipse rx="1.1053" ry="1.10863" transform="matrix(0.740992 -0.671514 0.757174 0.653213 203.401 59.8864)" fill="#C4C4C4"/>
<ellipse rx="1.1053" ry="1.10863" transform="matrix(0.740992 -0.671514 0.757174 0.653213 207.086 56.5464)" fill="#C4C4C4"/>
<ellipse rx="1.1053" ry="1.10863" transform="matrix(0.740992 -0.671514 0.757174 0.653213 210.772 53.2064)" fill="#C4C4C4"/>
<ellipse rx="1.1053" ry="1.10863" transform="matrix(0.740992 -0.671514 0.757174 0.653213 214.457 49.8665)" fill="#C4C4C4"/>
<ellipse rx="1.1053" ry="1.10863" transform="matrix(0.740992 -0.671514 0.757174 0.653213 218.143 46.5265)" fill="#C4C4C4"/>
<ellipse rx="1.1053" ry="1.10863" transform="matrix(0.740992 -0.671514 0.757174 0.653213 221.828 43.1865)" fill="#C4C4C4"/>
<ellipse rx="1.1053" ry="1.10863" transform="matrix(0.740992 -0.671514 0.757174 0.653213 225.514 39.8465)" fill="#C4C4C4"/>
<ellipse rx="1.1053" ry="1.10863" transform="matrix(0.740992 -0.671514 0.757174 0.653213 229.2 36.5065)" fill="#C4C4C4"/>
<ellipse rx="1.1053" ry="1.10863" transform="matrix(0.740992 -0.671514 0.757174 0.653213 232.885 33.1664)" fill="#C4C4C4"/>
<ellipse rx="1.1053" ry="1.10863" transform="matrix(0.740992 -0.671514 0.757174 0.653213 236.571 29.8264)" fill="#C4C4C4"/>
<path d="M137.519 88.8948C134.975 85.242 140.953 78.1077 140.953 78.1077C140.953 78.1077 143.547 78.0104 145.204 78.1077C146.422 78.1792 147.105 78.2465 148.311 78.425C150.056 78.6833 151.018 78.9381 152.725 79.3768C154.404 79.8083 155.349 80.0576 156.976 80.6459C158.477 81.1882 159.31 81.5268 160.737 82.2322C161.986 82.8497 162.692 83.2014 163.844 83.9772C165.146 84.8548 165.789 85.4675 166.95 86.5153C167.81 87.2908 168.332 87.696 169.076 88.5775C169.805 89.4419 170.311 89.983 170.874 90.9571C171.223 91.5611 171.438 91.9089 171.692 92.3848C171.945 92.8607 172.44 93.7191 172.673 94.6056C172.905 95.4921 173 96.0559 173 96.9851C173 97.7783 172.955 98.3464 172.836 99.206C172.748 99.8406 172.118 101.197 171.528 102.379C171.241 102.953 170.711 103.806 170.711 103.806C170.711 103.806 169.776 102.592 169.076 101.903C168.313 101.151 167.835 100.771 166.95 100.158C165.648 99.2555 164.799 98.9184 163.353 98.2542C161.799 97.5406 160.873 97.2597 159.265 96.6679C157.49 96.0144 156.497 95.6369 154.687 95.0815C152.856 94.5196 151.81 94.2606 149.946 93.8125C148.231 93.4004 147.227 93.3398 145.531 92.8607C143.902 92.4004 143.015 92.0525 141.443 91.433C140.41 91.0257 139.702 90.9931 138.827 90.3225C138.224 89.8601 137.95 89.5129 137.519 88.8948Z" fill="#F67216"/>
<path d="M144.242 144.477C145.035 144.419 146.278 144.477 146.278 144.477L141.109 151.226L133.278 151.072C133.278 151.072 133.893 150.008 134.374 149.385C134.871 148.743 135.173 148.391 135.784 147.852C136.402 147.306 136.96 146.907 137.663 146.471C138.427 145.998 138.708 145.889 139.543 145.551C140.312 145.24 140.772 145.134 141.579 144.938C142.604 144.688 143.189 144.555 144.242 144.477Z" fill="black"/>
<path d="M164.185 87.2671C164.672 86.7363 165.751 86.1935 165.751 86.1935C165.751 86.1935 167.054 87.1936 167.839 87.8806C168.692 88.6274 169.252 88.9975 169.926 89.8746C170.523 90.6505 170.985 91.1981 171.492 92.0218C171.943 92.753 172.008 92.7842 172.362 93.5556C172.653 94.1888 172.775 94.8735 172.884 95.5495C173.009 96.3204 173.018 96.7655 172.98 97.5435C172.945 98.264 172.905 98.6834 172.71 99.384C172.536 100.011 172.425 100.489 172.11 101.071C171.809 101.628 171.24 102.452 171.24 102.452C171.24 102.452 171.17 101.923 171.144 101.685C171.083 101.119 170.901 100.817 170.622 100.304C170.305 99.7198 170.047 99.4231 169.579 98.9239C169.15 98.4669 168.823 98.1271 168.361 97.6968C167.812 97.1867 167.57 96.981 167.013 96.5072L166.969 96.4698L166.944 96.4483C166.508 96.0781 166.253 95.8615 165.751 95.5495C165.179 95.1945 164.826 94.9354 164.359 94.4759C163.871 93.9952 163.549 93.7068 163.315 93.0955C163.068 92.4483 163.068 92.2388 162.967 91.5617C162.87 90.9085 162.856 90.5261 162.967 89.8746C163.073 89.2562 163.2 88.9118 163.489 88.3408C163.712 87.8998 163.84 87.6425 164.185 87.2671Z" fill="black" stroke="black"/>
<path d="M149.282 146.567L154.222 143.774V179C154.222 179 151.875 177.34 150.6 176.052C149.187 174.624 148.489 173.716 147.471 172.017C146.608 170.575 145.956 169.769 145.66 168.137C145.454 167.002 145.609 166.339 145.66 165.189C145.719 163.851 145.829 163.105 145.989 161.775C146.38 158.538 147.471 153.55 147.471 153.55L149.282 146.567Z" fill="black"/>
<path d="M137.273 74.5338C138.876 75.26 139.778 76.7097 139.778 76.7097C139.778 76.7097 138.492 77.3988 137.273 77.3988C135.863 77.3988 135.055 77.5082 133.661 77.7171C131.836 77.9906 130.198 78.464 128.571 79.3088C126.399 80.436 125.407 81.1634 123.48 82.6512C121.624 84.0846 121.31 84.4589 119.704 86.1528C118.043 87.9045 117.061 89.6972 116.091 91.8827C115.329 93.6005 114.756 94.6854 114.285 96.4985C113.627 99.0285 113.222 100.416 113.3 103.024C113.368 105.33 113.613 106.743 114.777 108.754C115.645 110.254 116.332 111.042 117.733 112.097C119.297 113.274 120.398 113.751 122.331 114.166C124.272 114.582 125.48 114.582 127.421 114.166C129.354 113.751 130.979 113.153 132.511 111.937C134.318 110.505 134.81 109.792 135.422 108.754C135.422 108.754 135.514 116.436 136.655 121.072C137.588 124.864 137.806 126.511 140.647 129.995C143.489 133.479 152.544 141.065 152.544 141.065H146.14C143.383 141.065 141.827 140.763 139.08 140.428C136.956 140.169 133.661 139.473 133.661 139.473C133.661 139.473 129.772 138.583 127.421 137.563C125.352 136.665 124.21 136.086 122.331 134.857C120.405 133.597 119.378 132.787 117.733 131.196C115.762 129.291 114.797 128.06 113.3 125.785C111.541 123.112 110.718 121.471 109.687 118.463C108.117 113.883 107.879 111.031 108.045 106.208C108.177 102.367 108.484 100.159 109.687 96.4985C111.019 92.4461 112.208 90.2375 114.777 86.7895C117.246 83.4755 119.02 81.8413 122.331 79.3088C124.216 77.8669 125.245 76.9492 127.421 75.9663C129.131 75.1943 130.486 74.5105 132.347 74.2155C133.332 74.0593 135.414 73.6915 137.273 74.5338Z" fill="black"/>
<path d="M152.544 136.29C152.544 136.29 146.122 131.322 143.466 127.095C140.154 121.823 139.08 111.937 139.08 111.937V99.2043C139.08 99.2043 143.724 104.809 146.14 108.754C147.941 111.694 149.006 113.352 150.245 116.553C151.59 120.025 152.07 122.105 152.544 125.785C153.07 129.855 152.544 136.29 152.544 136.29Z" fill="black"/>
<ellipse cx="133.639" cy="81.4516" rx="1.80556" ry="2.03226" fill="black"/>
<path d="M124.25 114.984C123.053 114.856 122.395 114.548 121.361 113.968C120.586 113.533 118.472 112.613 118.472 112.613C118.472 112.613 117.556 117.492 117.75 121.081C117.915 124.119 118.615 126.637 119.555 129.548C121.03 134.115 124.16 135.999 128.583 138.355C133.226 140.827 136.63 140.594 141.944 141.065C146.156 141.437 152.778 141.065 152.778 141.065C152.778 141.065 149.225 138.207 147 136.323C145 134.629 143.684 133.849 141.944 131.919C140.303 130.098 139.286 129.049 138.333 126.839C137.679 125.322 137.318 124.699 136.889 123.113C136.064 120.065 135.462 118.108 135.083 114.984C134.78 112.487 135.444 108.887 135.444 108.887C135.444 108.887 133.83 111.479 132.194 112.613C130.973 113.46 130.026 113.862 128.583 114.306C126.926 114.817 125.983 115.17 124.25 114.984Z" fill="white"/>
</svg>
