<svg width="246" height="246" viewBox="0 0 246 246" fill="none" xmlns="http://www.w3.org/2000/svg">
<path d="M134.345 103.355C132.505 100.816 136.827 95.8559 136.827 95.8559C136.827 95.8559 138.703 95.7882 139.901 95.8559C140.782 95.9056 141.276 95.9524 142.148 96.0765C143.41 96.2561 144.105 96.4332 145.34 96.7382C146.554 97.0382 147.237 97.2115 148.414 97.6205C149.499 97.9976 150.101 98.2329 151.133 98.7234C152.036 99.1527 152.546 99.3972 153.379 99.9365C154.321 100.547 154.786 100.973 155.625 101.701C156.247 102.24 156.625 102.522 157.162 103.135C157.689 103.736 158.056 104.112 158.463 104.789C158.715 105.209 158.871 105.451 159.054 105.782C159.237 106.113 159.595 106.71 159.763 107.326C159.931 107.942 160 108.334 160 108.98C160 109.532 159.968 109.927 159.882 110.524C159.818 110.965 159.363 111.909 158.936 112.73C158.728 113.129 158.345 113.723 158.345 113.723C158.345 113.723 157.668 112.878 157.162 112.399C156.611 111.877 156.265 111.612 155.625 111.186C154.684 110.559 154.07 110.324 153.024 109.862C151.901 109.366 151.231 109.171 150.069 108.76C148.785 108.305 148.067 108.043 146.758 107.657C145.434 107.266 144.678 107.086 143.33 106.774C142.09 106.488 141.364 106.446 140.138 106.113C138.96 105.793 138.319 105.551 137.182 105.12C136.435 104.837 135.923 104.814 135.29 104.348C134.854 104.027 134.656 103.785 134.345 103.355Z" fill="#F67216"/>
<path d="M139.205 141.999C139.778 141.958 140.677 141.999 140.677 141.999L136.94 146.69L131.277 146.584C131.277 146.584 131.722 145.843 132.07 145.411C132.429 144.964 132.648 144.72 133.089 144.344C133.536 143.965 133.94 143.688 134.448 143.385C135 143.056 135.204 142.98 135.807 142.745C136.363 142.529 136.696 142.455 137.28 142.319C138.021 142.145 138.444 142.052 139.205 141.999Z" fill="black"/>
<path d="M153.626 102.224C153.978 101.855 154.758 101.477 154.758 101.477C154.758 101.477 155.7 102.173 156.268 102.65C156.884 103.17 157.29 103.427 157.777 104.037C158.209 104.576 158.542 104.957 158.91 105.53C159.236 106.038 159.283 106.06 159.539 106.596C159.749 107.036 159.837 107.512 159.916 107.982C160.006 108.518 160.013 108.827 159.985 109.368C159.96 109.869 159.931 110.161 159.79 110.648C159.664 111.084 159.584 111.416 159.356 111.821C159.138 112.208 158.727 112.781 158.727 112.781C158.727 112.781 158.677 112.413 158.658 112.247C158.614 111.854 158.482 111.644 158.281 111.288C158.051 110.881 157.864 110.675 157.526 110.328C157.216 110.01 156.98 109.774 156.645 109.475C156.248 109.12 156.073 108.977 155.671 108.648L155.639 108.622L155.62 108.607C155.306 108.35 155.121 108.199 154.758 107.982C154.344 107.735 154.089 107.555 153.752 107.236C153.399 106.901 153.166 106.701 152.997 106.276C152.818 105.826 152.818 105.68 152.745 105.21C152.675 104.755 152.665 104.49 152.745 104.037C152.822 103.607 152.913 103.367 153.123 102.97C153.284 102.664 153.377 102.485 153.626 102.224Z" fill="black" stroke="black"/>
<path d="M142.85 143.452L146.422 141.51V166C146.422 166 144.724 164.846 143.803 163.95C142.781 162.958 142.276 162.327 141.54 161.145C140.916 160.143 140.445 159.582 140.231 158.448C140.081 157.659 140.194 157.198 140.231 156.398C140.274 155.468 140.353 154.949 140.469 154.025C140.751 151.774 141.54 148.307 141.54 148.307L142.85 143.452Z" fill="black"/>
<path d="M134.167 93.3711C135.326 93.876 135.978 94.8839 135.978 94.8839C135.978 94.8839 135.048 95.363 134.167 95.363C133.147 95.363 132.563 95.439 131.555 95.5843C130.235 95.7744 129.051 96.1035 127.874 96.6909C126.304 97.4746 125.587 97.9803 124.193 99.0147C122.851 100.011 122.624 100.271 121.463 101.449C120.262 102.667 119.552 103.913 118.85 105.433C118.299 106.627 117.885 107.381 117.544 108.642C117.069 110.401 116.776 111.366 116.832 113.179C116.882 114.782 117.059 115.764 117.901 117.162C118.528 118.205 119.025 118.753 120.038 119.486C121.168 120.305 121.965 120.636 123.362 120.925C124.766 121.214 125.64 121.214 127.043 120.925C128.441 120.636 129.616 120.22 130.724 119.376C132.03 118.38 132.386 117.884 132.828 117.162C132.828 117.162 132.895 122.503 133.719 125.726C134.394 128.363 134.552 129.508 136.607 131.93C138.661 134.352 145.209 139.626 145.209 139.626H140.578C138.585 139.626 137.46 139.416 135.473 139.183C133.937 139.003 131.555 138.519 131.555 138.519C131.555 138.519 128.743 137.901 127.043 137.191C125.547 136.567 124.721 136.165 123.362 135.31C121.969 134.434 121.227 133.871 120.038 132.765C118.612 131.44 117.914 130.585 116.832 129.003C115.561 127.145 114.965 126.004 114.22 123.913C113.085 120.728 112.913 118.745 113.033 115.392C113.128 112.722 113.35 111.187 114.22 108.642C115.183 105.824 116.043 104.289 117.901 101.892C119.686 99.5878 120.969 98.4516 123.362 96.6909C124.725 95.6884 125.469 95.0504 127.043 94.3671C128.279 93.8303 129.259 93.3549 130.605 93.1498C131.317 93.0413 132.823 92.7855 134.167 93.3711Z" fill="black"/>
<path d="M145.209 136.306C145.209 136.306 140.565 132.853 138.645 129.914C136.25 126.249 135.473 119.376 135.473 119.376V110.523C135.473 110.523 138.831 114.42 140.578 117.162C141.881 119.206 142.65 120.359 143.547 122.585C144.519 124.999 144.866 126.444 145.209 129.003C145.589 131.833 145.209 136.306 145.209 136.306Z" fill="black"/>
<ellipse cx="131.539" cy="98.1806" rx="1.30556" ry="1.4129" fill="black"/>
<path d="M124.75 121.493C123.884 121.404 123.408 121.191 122.661 120.787C122.101 120.484 120.572 119.845 120.572 119.845C120.572 119.845 119.909 123.237 120.05 125.732C120.169 127.845 120.675 129.595 121.355 131.619C122.421 134.794 124.684 136.104 127.883 137.742C131.24 139.461 133.701 139.299 137.544 139.626C140.59 139.885 145.377 139.626 145.377 139.626C145.377 139.626 142.809 137.639 141.2 136.329C139.754 135.152 138.802 134.609 137.544 133.268C136.357 132.002 135.622 131.272 134.933 129.735C134.46 128.681 134.199 128.248 133.889 127.145C133.292 125.026 132.857 123.665 132.583 121.493C132.364 119.757 132.844 117.255 132.844 117.255C132.844 117.255 131.677 119.057 130.494 119.845C129.611 120.434 128.926 120.713 127.883 121.023C126.685 121.378 126.003 121.623 124.75 121.493Z" fill="white"/>
<circle cx="92" cy="126" r="3" fill="#F67216"/>
<circle cx="119" cy="82" r="3" fill="#F67216"/>
<circle cx="169" cy="92" r="3" fill="#F67216"/>
<circle cx="169" cy="154" r="3" fill="#F67216"/>
<circle cx="116" cy="166" r="3" fill="#F67216"/>
<ellipse rx="1.1053" ry="1.10863" transform="matrix(-0.507351 0.861739 -0.917367 -0.398043 112.477 171.394)" fill="#C4C4C4"/>
<ellipse rx="1.1053" ry="1.10863" transform="matrix(-0.507351 0.861739 -0.917367 -0.398043 109.953 175.68)" fill="#C4C4C4"/>
<ellipse rx="1.1053" ry="1.10863" transform="matrix(-0.507351 0.861739 -0.917367 -0.398043 107.43 179.966)" fill="#C4C4C4"/>
<ellipse rx="1.1053" ry="1.10863" transform="matrix(-0.507351 0.861739 -0.917367 -0.398043 104.907 184.252)" fill="#C4C4C4"/>
<ellipse rx="1.1053" ry="1.10863" transform="matrix(-0.507351 0.861739 -0.917367 -0.398043 102.383 188.538)" fill="#C4C4C4"/>
<ellipse rx="1.1053" ry="1.10863" transform="matrix(-0.507351 0.861739 -0.917367 -0.398043 99.8597 192.825)" fill="#C4C4C4"/>
<ellipse rx="1.1053" ry="1.10863" transform="matrix(-0.507351 0.861739 -0.917367 -0.398043 97.3363 197.111)" fill="#C4C4C4"/>
<ellipse rx="1.1053" ry="1.10863" transform="matrix(-0.463669 -0.886009 0.822583 -0.568645 115.63 76.5264)" fill="#C4C4C4"/>
<ellipse rx="1.1053" ry="1.10863" transform="matrix(-0.463669 -0.886009 0.822583 -0.568645 113.323 72.1195)" fill="#C4C4C4"/>
<ellipse rx="1.1053" ry="1.10863" transform="matrix(-0.463669 -0.886009 0.822583 -0.568645 111.018 67.7127)" fill="#C4C4C4"/>
<ellipse rx="1.1053" ry="1.10863" transform="matrix(-0.463669 -0.886009 0.822583 -0.568645 108.711 63.3058)" fill="#C4C4C4"/>
<ellipse rx="1.1053" ry="1.10863" transform="matrix(-0.463669 -0.886009 0.822583 -0.568645 106.405 58.8989)" fill="#C4C4C4"/>
<ellipse rx="1.1053" ry="1.10863" transform="matrix(-0.463669 -0.886009 0.822583 -0.568645 104.099 54.4921)" fill="#C4C4C4"/>
<ellipse rx="1.1053" ry="1.10863" transform="matrix(-0.996213 0.0869453 -0.208246 -0.978077 85.5674 127.18)" fill="#C4C4C4"/>
<ellipse rx="1.1053" ry="1.10863" transform="matrix(-0.996213 0.0869453 -0.208246 -0.978077 80.6124 127.613)" fill="#C4C4C4"/>
<ellipse rx="1.1053" ry="1.10863" transform="matrix(-0.996213 0.0869453 -0.208246 -0.978077 75.6573 128.045)" fill="#C4C4C4"/>
<ellipse rx="1.1053" ry="1.10863" transform="matrix(-0.996213 0.0869453 -0.208246 -0.978077 70.7022 128.478)" fill="#C4C4C4"/>
<ellipse rx="1.1053" ry="1.10863" transform="matrix(-0.996213 0.0869453 -0.208246 -0.978077 65.7471 128.91)" fill="#C4C4C4"/>
<ellipse rx="1.1053" ry="1.10863" transform="matrix(0.702074 -0.712104 -0.620801 -0.783968 175.465 86.8683)" fill="#C4C4C4"/>
<ellipse rx="1.1053" ry="1.10863" transform="matrix(0.702074 -0.712104 -0.620801 -0.783968 178.957 83.3264)" fill="#C4C4C4"/>
<ellipse rx="1.1053" ry="1.10863" transform="matrix(0.702074 -0.712104 -0.620801 -0.783968 182.449 79.7846)" fill="#C4C4C4"/>
<ellipse rx="1.1053" ry="1.10863" transform="matrix(0.702074 -0.712104 -0.620801 -0.783968 185.94 76.2427)" fill="#C4C4C4"/>
<ellipse rx="1.1053" ry="1.10863" transform="matrix(0.702074 -0.712104 -0.620801 -0.783968 189.432 72.7007)" fill="#C4C4C4"/>
<ellipse rx="1.1053" ry="1.10863" transform="matrix(0.833416 0.552646 0.650515 -0.759493 173.642 157.453)" fill="#C4C4C4"/>
<ellipse rx="1.1053" ry="1.10863" transform="matrix(0.833416 0.552646 0.650515 -0.759493 177.788 160.202)" fill="#C4C4C4"/>
<ellipse rx="1.1053" ry="1.10863" transform="matrix(0.833416 0.552646 0.650515 -0.759493 181.933 162.95)" fill="#C4C4C4"/>
<ellipse rx="1.1053" ry="1.10863" transform="matrix(0.833416 0.552646 0.650515 -0.759493 186.078 165.699)" fill="#C4C4C4"/>
<ellipse rx="1.1053" ry="1.10863" transform="matrix(0.833416 0.552646 0.650515 -0.759493 190.223 168.448)" fill="#C4C4C4"/>
<ellipse rx="1.1053" ry="1.10863" transform="matrix(0.833416 0.552646 0.650515 -0.759493 194.369 171.197)" fill="#C4C4C4"/>
<ellipse rx="1.1053" ry="1.10863" transform="matrix(0.833416 0.552646 0.650515 -0.759493 198.514 173.945)" fill="#C4C4C4"/>
</svg>
