<svg width="548" height="481" viewBox="0 0 548 481" fill="none" xmlns="http://www.w3.org/2000/svg">
<circle cx="214" cy="139" r="5" fill="#F67216"/>
<circle cx="167" cy="269" r="5" fill="#F67216"/>
<circle cx="355" cy="172" r="5" fill="#F67216"/>
<circle cx="382" cy="261" r="5" fill="#F67216"/>
<circle cx="244" cy="335" r="5" fill="#F67216"/>
<path d="M276.952 173.811C272.215 167.236 283.344 154.394 283.344 154.394C283.344 154.394 288.172 154.219 291.257 154.394C293.524 154.523 294.795 154.644 297.04 154.965C300.29 155.43 302.08 155.889 305.258 156.678C308.384 157.455 310.142 157.904 313.172 158.963C315.965 159.939 317.516 160.548 320.172 161.818C322.497 162.93 323.812 163.563 325.955 164.959C328.381 166.539 329.576 167.642 331.738 169.528C333.339 170.924 334.311 171.653 335.695 173.24C337.052 174.796 337.995 175.77 339.043 177.523C339.693 178.61 340.094 179.236 340.565 180.093C341.037 180.949 341.959 182.495 342.391 184.09C342.824 185.686 343 186.701 343 188.373C343 189.801 342.917 190.824 342.696 192.371C342.532 193.513 341.36 195.956 340.261 198.082C339.727 199.115 338.739 200.652 338.739 200.652C338.739 200.652 336.998 198.466 335.695 197.225C334.275 195.872 333.386 195.188 331.738 194.084C329.314 192.46 327.735 191.853 325.042 190.658C322.149 189.373 320.425 188.868 317.433 187.802C314.129 186.626 312.28 185.947 308.911 184.947C305.501 183.935 303.555 183.469 300.084 182.663C296.893 181.921 295.022 181.812 291.866 180.949C288.834 180.121 287.183 179.495 284.257 178.379C282.333 177.646 281.016 177.588 279.387 176.381C278.264 175.548 277.753 174.923 276.952 173.811Z" fill="#F67216"/>
<path d="M289.465 273.86C290.941 273.755 293.256 273.86 293.256 273.86L283.634 286.007L269.056 285.73C269.056 285.73 270.2 283.814 271.097 282.694C272.022 281.538 272.583 280.905 273.721 279.933C274.871 278.951 275.911 278.233 277.22 277.449C278.64 276.597 279.165 276.401 280.718 275.792C282.149 275.232 283.006 275.042 284.509 274.688C286.416 274.238 287.505 273.999 289.465 273.86Z" fill="black"/>
<path d="M326.591 170.881C327.498 169.926 329.506 168.948 329.506 168.948C329.506 168.948 331.931 170.749 333.392 171.985C334.98 173.329 336.023 173.996 337.279 175.574C338.39 176.971 339.249 177.957 340.194 179.44C341.033 180.756 341.155 180.812 341.813 182.2C342.354 183.34 342.581 184.572 342.785 185.789C343.017 187.177 343.034 187.978 342.963 189.378C342.897 190.676 342.823 191.43 342.461 192.691C342.137 193.819 341.93 194.68 341.343 195.728C340.783 196.73 339.724 198.213 339.724 198.213C339.724 198.213 339.594 197.262 339.546 196.833C339.432 195.814 339.092 195.271 338.574 194.348C337.984 193.296 337.503 192.762 336.631 191.863C335.833 191.041 335.226 190.429 334.364 189.655C333.342 188.736 332.892 188.366 331.855 187.513L331.773 187.446L331.726 187.407C330.916 186.741 330.441 186.351 329.506 185.789C328.441 185.15 327.783 184.684 326.915 183.857C326.006 182.992 325.406 182.473 324.971 181.372C324.511 180.207 324.512 179.83 324.324 178.611C324.142 177.435 324.116 176.747 324.324 175.574C324.52 174.461 324.757 173.841 325.295 172.814C325.711 172.02 325.949 171.557 326.591 170.881Z" fill="black" stroke="black"/>
<path d="M298.849 277.621L308.044 272.594V336C308.044 336 303.674 333.012 301.301 330.693C298.671 328.124 297.372 326.489 295.477 323.43C293.87 320.836 292.657 319.384 292.105 316.447C291.721 314.404 292.01 313.211 292.105 311.14C292.216 308.733 292.419 307.389 292.718 304.995C293.445 299.168 295.477 290.191 295.477 290.191L298.849 277.621Z" fill="black"/>
<path d="M276.493 147.961C279.477 149.268 281.156 151.877 281.156 151.877C281.156 151.877 278.762 153.118 276.493 153.118C273.867 153.118 272.364 153.315 269.769 153.691C266.372 154.183 263.323 155.035 260.293 156.556C256.25 158.585 254.404 159.894 250.817 162.572C247.361 165.152 246.776 165.826 243.787 168.875C240.695 172.028 238.867 175.255 237.062 179.189C235.643 182.281 234.577 184.234 233.699 187.497C232.474 192.051 231.721 194.549 231.865 199.244C231.993 203.394 232.449 205.937 234.616 209.557C236.232 212.256 237.511 213.676 240.119 215.574C243.029 217.692 245.079 218.552 248.677 219.298C252.29 220.048 254.54 220.048 258.153 219.298C261.751 218.552 264.777 217.475 267.629 215.287C270.991 212.709 271.908 211.426 273.047 209.557C273.047 209.557 273.219 223.384 275.342 231.729C277.078 238.556 277.485 241.52 282.774 247.791C288.064 254.063 304.921 267.716 304.921 267.716H293C287.867 267.716 284.971 267.174 279.856 266.57C275.903 266.104 269.769 264.851 269.769 264.851C269.769 264.851 262.529 263.25 258.153 261.413C254.301 259.796 252.176 258.755 248.677 256.543C245.092 254.275 243.181 252.816 240.119 249.953C236.449 246.523 234.652 244.308 231.865 240.213C228.593 235.402 227.06 232.448 225.141 227.034C222.218 218.789 221.775 213.656 222.084 204.974C222.33 198.061 222.9 194.087 225.141 187.497C227.62 180.203 229.834 176.227 234.616 170.021C239.213 164.056 242.515 161.114 248.677 156.556C252.186 153.96 254.102 152.309 258.153 150.539C261.336 149.15 263.859 147.919 267.323 147.388C269.157 147.107 273.033 146.445 276.493 147.961Z" fill="black"/>
<path d="M304.921 259.121C304.921 259.121 292.965 250.18 288.021 242.571C281.856 233.082 279.856 215.287 279.856 215.287V192.368C279.856 192.368 288.501 202.456 293 209.557C296.352 214.85 298.334 217.834 300.642 223.596C303.145 229.846 304.037 233.589 304.921 240.213C305.899 247.54 304.921 259.121 304.921 259.121Z" fill="black"/>
<ellipse cx="269.728" cy="160.413" rx="3.36111" ry="3.65806" fill="black"/>
<path d="M252.25 220.771C250.022 220.54 248.796 219.987 246.872 218.942C245.43 218.159 241.494 216.503 241.494 216.503C241.494 216.503 239.789 225.285 240.15 231.745C240.457 237.214 241.761 241.746 243.511 246.987C246.255 255.207 252.082 258.599 260.317 262.839C268.959 267.289 275.295 266.869 285.189 267.716C293.03 268.387 305.355 267.716 305.355 267.716C305.355 267.716 298.742 262.573 294.6 259.181C290.877 256.132 288.427 254.729 285.189 251.255C282.133 247.977 280.241 246.089 278.467 242.11C277.249 239.379 276.576 238.258 275.778 235.403C274.243 229.918 273.122 226.394 272.417 220.771C271.853 216.276 273.089 209.797 273.089 209.797C273.089 209.797 270.083 214.462 267.039 216.503C264.765 218.028 263.003 218.751 260.317 219.552C257.232 220.471 255.476 221.105 252.25 220.771Z" fill="white"/>
<circle cx="161.063" cy="477.782" r="2" transform="rotate(-60.0989 161.063 477.782)" fill="#C4C4C4"/>
<circle cx="165.549" cy="469.98" r="2" transform="rotate(-60.0989 165.549 469.98)" fill="#C4C4C4"/>
<circle cx="170.036" cy="462.178" r="2" transform="rotate(-60.0989 170.036 462.178)" fill="#C4C4C4"/>
<circle cx="174.522" cy="454.376" r="2" transform="rotate(-60.0989 174.522 454.376)" fill="#C4C4C4"/>
<circle cx="179.009" cy="446.574" r="2" transform="rotate(-60.0989 179.009 446.574)" fill="#C4C4C4"/>
<circle cx="183.495" cy="438.772" r="2" transform="rotate(-60.0989 183.495 438.772)" fill="#C4C4C4"/>
<circle cx="187.982" cy="430.97" r="2" transform="rotate(-60.0989 187.982 430.97)" fill="#C4C4C4"/>
<circle cx="192.469" cy="423.168" r="2" transform="rotate(-60.0989 192.469 423.168)" fill="#C4C4C4"/>
<circle cx="196.955" cy="415.366" r="2" transform="rotate(-60.0989 196.955 415.366)" fill="#C4C4C4"/>
<circle cx="201.442" cy="407.564" r="2" transform="rotate(-60.0989 201.442 407.564)" fill="#C4C4C4"/>
<circle cx="205.928" cy="399.762" r="2" transform="rotate(-60.0989 205.928 399.762)" fill="#C4C4C4"/>
<circle cx="210.415" cy="391.96" r="2" transform="rotate(-60.0989 210.415 391.96)" fill="#C4C4C4"/>
<circle cx="214.901" cy="384.158" r="2" transform="rotate(-60.0989 214.901 384.158)" fill="#C4C4C4"/>
<circle cx="219.388" cy="376.356" r="2" transform="rotate(-60.0989 219.388 376.356)" fill="#C4C4C4"/>
<circle cx="223.874" cy="368.554" r="2" transform="rotate(-60.0989 223.874 368.554)" fill="#C4C4C4"/>
<circle cx="228.361" cy="360.752" r="2" transform="rotate(-60.0989 228.361 360.752)" fill="#C4C4C4"/>
<circle cx="232.847" cy="352.95" r="2" transform="rotate(-60.0989 232.847 352.95)" fill="#C4C4C4"/>
<circle cx="237.334" cy="345.148" r="2" transform="rotate(-60.0989 237.334 345.148)" fill="#C4C4C4"/>
<circle cx="393.133" cy="262.133" r="2" transform="rotate(3.95225 393.133 262.133)" fill="#C4C4C4"/>
<circle cx="402.112" cy="262.753" r="2" transform="rotate(3.95225 402.112 262.753)" fill="#C4C4C4"/>
<circle cx="411.09" cy="263.374" r="2" transform="rotate(3.95225 411.09 263.374)" fill="#C4C4C4"/>
<circle cx="420.069" cy="263.994" r="2" transform="rotate(3.95225 420.069 263.994)" fill="#C4C4C4"/>
<circle cx="429.048" cy="264.614" r="2" transform="rotate(3.95225 429.048 264.614)" fill="#C4C4C4"/>
<circle cx="438.026" cy="265.235" r="2" transform="rotate(3.95225 438.026 265.235)" fill="#C4C4C4"/>
<circle cx="447.005" cy="265.855" r="2" transform="rotate(3.95225 447.005 265.855)" fill="#C4C4C4"/>
<circle cx="455.983" cy="266.475" r="2" transform="rotate(3.95225 455.983 266.475)" fill="#C4C4C4"/>
<circle cx="464.962" cy="267.096" r="2" transform="rotate(3.95225 464.962 267.096)" fill="#C4C4C4"/>
<circle cx="473.94" cy="267.716" r="2" transform="rotate(3.95225 473.94 267.716)" fill="#C4C4C4"/>
<circle cx="482.919" cy="268.336" r="2" transform="rotate(3.95225 482.919 268.336)" fill="#C4C4C4"/>
<circle cx="491.898" cy="268.957" r="2" transform="rotate(3.95225 491.898 268.957)" fill="#C4C4C4"/>
<circle cx="500.876" cy="269.577" r="2" transform="rotate(3.95225 500.876 269.577)" fill="#C4C4C4"/>
<circle cx="509.855" cy="270.197" r="2" transform="rotate(3.95225 509.855 270.197)" fill="#C4C4C4"/>
<circle cx="518.833" cy="270.818" r="2" transform="rotate(3.95225 518.833 270.818)" fill="#C4C4C4"/>
<circle cx="527.812" cy="271.438" r="2" transform="rotate(3.95225 527.812 271.438)" fill="#C4C4C4"/>
<circle cx="536.791" cy="272.058" r="2" transform="rotate(3.95225 536.791 272.058)" fill="#C4C4C4"/>
<circle cx="545.77" cy="272.679" r="2" transform="rotate(3.95225 545.77 272.679)" fill="#C4C4C4"/>
<circle cx="117.784" cy="2.78332" r="2" transform="rotate(55.2461 117.784 2.78332)" fill="#C4C4C4"/>
<circle cx="122.914" cy="10.1779" r="2" transform="rotate(55.2461 122.914 10.1779)" fill="#C4C4C4"/>
<circle cx="128.044" cy="17.5724" r="2" transform="rotate(55.2461 128.044 17.5724)" fill="#C4C4C4"/>
<circle cx="133.175" cy="24.9667" r="2" transform="rotate(55.2461 133.175 24.9667)" fill="#C4C4C4"/>
<circle cx="138.305" cy="32.3612" r="2" transform="rotate(55.2461 138.305 32.3612)" fill="#C4C4C4"/>
<circle cx="143.436" cy="39.7557" r="2" transform="rotate(55.2461 143.436 39.7557)" fill="#C4C4C4"/>
<circle cx="148.566" cy="47.1503" r="2" transform="rotate(55.2461 148.566 47.1503)" fill="#C4C4C4"/>
<circle cx="153.697" cy="54.5446" r="2" transform="rotate(55.2461 153.697 54.5446)" fill="#C4C4C4"/>
<circle cx="158.827" cy="61.9391" r="2" transform="rotate(55.2461 158.827 61.9391)" fill="#C4C4C4"/>
<circle cx="163.958" cy="69.3336" r="2" transform="rotate(55.2461 163.958 69.3336)" fill="#C4C4C4"/>
<circle cx="169.088" cy="76.7281" r="2" transform="rotate(55.2461 169.088 76.7281)" fill="#C4C4C4"/>
<circle cx="174.219" cy="84.1224" r="2" transform="rotate(55.2461 174.219 84.1224)" fill="#C4C4C4"/>
<circle cx="179.349" cy="91.517" r="2" transform="rotate(55.2461 179.349 91.517)" fill="#C4C4C4"/>
<circle cx="184.48" cy="98.9115" r="2" transform="rotate(55.2461 184.48 98.9115)" fill="#C4C4C4"/>
<circle cx="189.61" cy="106.306" r="2" transform="rotate(55.2461 189.61 106.306)" fill="#C4C4C4"/>
<circle cx="194.741" cy="113.7" r="2" transform="rotate(55.2461 194.741 113.7)" fill="#C4C4C4"/>
<circle cx="199.871" cy="121.095" r="2" transform="rotate(55.2461 199.871 121.095)" fill="#C4C4C4"/>
<circle cx="205.002" cy="128.489" r="2" transform="rotate(55.2461 205.002 128.489)" fill="#C4C4C4"/>
<circle cx="2.1611" cy="282.027" r="2" transform="rotate(-4.82367 2.1611 282.027)" fill="#C4C4C4"/>
<circle cx="11.1294" cy="281.27" r="2" transform="rotate(-4.82367 11.1294 281.27)" fill="#C4C4C4"/>
<circle cx="20.0971" cy="280.513" r="2" transform="rotate(-4.82367 20.0971 280.513)" fill="#C4C4C4"/>
<circle cx="29.0654" cy="279.756" r="2" transform="rotate(-4.82367 29.0654 279.756)" fill="#C4C4C4"/>
<circle cx="38.0337" cy="279" r="2" transform="rotate(-4.82367 38.0337 279)" fill="#C4C4C4"/>
<circle cx="47.0019" cy="278.243" r="2" transform="rotate(-4.82367 47.0019 278.243)" fill="#C4C4C4"/>
<circle cx="55.9697" cy="277.486" r="2" transform="rotate(-4.82367 55.9697 277.486)" fill="#C4C4C4"/>
<circle cx="64.938" cy="276.729" r="2" transform="rotate(-4.82367 64.938 276.729)" fill="#C4C4C4"/>
<circle cx="73.9062" cy="275.972" r="2" transform="rotate(-4.82367 73.9062 275.972)" fill="#C4C4C4"/>
<circle cx="82.874" cy="275.216" r="2" transform="rotate(-4.82367 82.874 275.216)" fill="#C4C4C4"/>
<circle cx="91.8422" cy="274.459" r="2" transform="rotate(-4.82367 91.8422 274.459)" fill="#C4C4C4"/>
<circle cx="100.811" cy="273.702" r="2" transform="rotate(-4.82367 100.811 273.702)" fill="#C4C4C4"/>
<circle cx="109.779" cy="272.945" r="2" transform="rotate(-4.82367 109.779 272.945)" fill="#C4C4C4"/>
<circle cx="118.747" cy="272.189" r="2" transform="rotate(-4.82367 118.747 272.189)" fill="#C4C4C4"/>
<circle cx="127.715" cy="271.432" r="2" transform="rotate(-4.82367 127.715 271.432)" fill="#C4C4C4"/>
<circle cx="136.683" cy="270.675" r="2" transform="rotate(-4.82367 136.683 270.675)" fill="#C4C4C4"/>
<circle cx="145.651" cy="269.918" r="2" transform="rotate(-4.82367 145.651 269.918)" fill="#C4C4C4"/>
<circle cx="154.619" cy="269.161" r="2" transform="rotate(-4.82367 154.619 269.161)" fill="#C4C4C4"/>
<circle cx="362.828" cy="164.339" r="2" transform="rotate(-45.7052 362.828 164.339)" fill="#C4C4C4"/>
<circle cx="369.113" cy="157.897" r="2" transform="rotate(-45.7052 369.113 157.897)" fill="#C4C4C4"/>
<circle cx="375.399" cy="151.455" r="2" transform="rotate(-45.7052 375.399 151.455)" fill="#C4C4C4"/>
<circle cx="381.684" cy="145.013" r="2" transform="rotate(-45.7052 381.684 145.013)" fill="#C4C4C4"/>
<circle cx="387.969" cy="138.572" r="2" transform="rotate(-45.7052 387.969 138.572)" fill="#C4C4C4"/>
<circle cx="394.254" cy="132.13" r="2" transform="rotate(-45.7052 394.254 132.13)" fill="#C4C4C4"/>
<circle cx="400.539" cy="125.688" r="2" transform="rotate(-45.7052 400.539 125.688)" fill="#C4C4C4"/>
<circle cx="406.824" cy="119.246" r="2" transform="rotate(-45.7052 406.824 119.246)" fill="#C4C4C4"/>
<circle cx="413.109" cy="112.804" r="2" transform="rotate(-45.7052 413.109 112.804)" fill="#C4C4C4"/>
<circle cx="419.395" cy="106.362" r="2" transform="rotate(-45.7052 419.395 106.362)" fill="#C4C4C4"/>
<circle cx="425.68" cy="99.9208" r="2" transform="rotate(-45.7052 425.68 99.9208)" fill="#C4C4C4"/>
<circle cx="431.965" cy="93.4789" r="2" transform="rotate(-45.7052 431.965 93.4789)" fill="#C4C4C4"/>
<circle cx="438.25" cy="87.0372" r="2" transform="rotate(-45.7052 438.25 87.0372)" fill="#C4C4C4"/>
<circle cx="444.535" cy="80.5953" r="2" transform="rotate(-45.7052 444.535 80.5953)" fill="#C4C4C4"/>
<circle cx="450.82" cy="74.1534" r="2" transform="rotate(-45.7052 450.82 74.1534)" fill="#C4C4C4"/>
<circle cx="457.106" cy="67.7118" r="2" transform="rotate(-45.7052 457.106 67.7118)" fill="#C4C4C4"/>
<circle cx="463.391" cy="61.2699" r="2" transform="rotate(-45.7052 463.391 61.2699)" fill="#C4C4C4"/>
<circle cx="469.676" cy="54.828" r="2" transform="rotate(-45.7052 469.676 54.828)" fill="#C4C4C4"/>
</svg>
