<svg width="37" height="31" viewBox="0 0 37 31" fill="none" xmlns="http://www.w3.org/2000/svg">
<ellipse cx="15.4454" cy="15.5" rx="15.4454" ry="15.5" fill="white" fill-opacity="0.4"/>
<path d="M21.3861 16.6923C21.0027 16.3779 20.7919 15.9983 20.5939 15.8974C20.3958 15.7966 20.1453 15.6987 19.604 15.6987C19.372 15.6987 18.834 15.6251 18.6139 15.6987C18.3026 15.8028 18.0287 16.0393 17.8218 16.2949C17.5375 16.6461 17.4719 16.9081 17.2275 17.2884C16.8671 17.8495 16.7127 18.119 16.4357 18.6795C16.174 19.2089 15.9629 19.4922 15.8416 20.0705C15.7142 20.678 15.6434 21.0394 15.6434 21.6602C15.6434 22.1259 15.6085 22.3818 15.6435 22.8525C15.6723 23.2395 15.6146 23.4515 15.6434 23.8461C15.6603 24.0781 15.7378 24.2337 15.8413 24.4416L15.8416 24.4423C16.0394 24.8397 16.5545 25.9525 17.4258 26.032C21.782 26.4295 27.3265 26.4295 31.089 26.032C32.0739 25.928 32.9131 25.4237 33.0692 24.4423C33.1058 24.2124 33.0692 24.079 33.0692 23.8461V22.8525V21.6602C33.0692 21.0394 33.159 20.6847 33.0692 20.0705C32.9874 19.5115 32.8608 19.0134 32.673 18.4808C32.4765 17.9236 32.4128 17.7755 32.0791 17.2884C31.7693 16.8363 31.089 16.2949 31.089 16.2949C31.089 16.2949 30.412 15.7879 29.9009 15.6987C29.5962 15.6455 29.4099 15.6276 29.1088 15.6987C28.5209 15.8375 28.4291 16.365 27.9207 16.6923C27.4841 16.9734 27.2068 17.0773 26.7326 17.2884C26.3519 17.4579 26.1446 17.5771 25.7425 17.6859C24.8466 17.9283 23.9274 17.8846 23.3663 17.6859C23.0402 17.5704 22.6855 17.4437 22.3762 17.2884C21.9122 17.0556 21.7879 17.0216 21.3861 16.6923Z" fill="white"/>
<path d="M16.2372 11.1282C15.4998 10.9369 14.8204 10.3334 14.0588 10.3334C13.2972 10.3334 12.8037 10.5765 12.2767 11.1282C11.823 11.6031 11.7541 13.4104 12.2767 14.7052C12.6892 15.7275 13.0214 16.1294 14.0588 16.4936C14.7158 16.7243 15.1489 16.7285 15.6431 16.4936C16.1373 16.2587 16.4104 16.2481 16.8311 15.8975C17.5248 15.3193 17.9243 14.8687 18.8113 14.7052C19.2676 14.6211 19.9994 14.7052 19.9994 14.7052C19.9994 14.7052 19.0313 13.7265 18.8113 12.9167C18.6281 12.2429 19.2073 11.327 18.8113 11.1282C18.0192 10.7308 17.3602 11.4197 16.2372 11.1282Z" fill="white"/>
<path d="M32.673 11.1282C33.4104 10.9369 34.0897 10.3334 34.8513 10.3334C35.613 10.3334 36.1064 10.5765 36.6335 11.1282C37.0871 11.6031 37.156 13.4104 36.6335 14.7052C36.2209 15.7275 35.8888 16.1294 34.8513 16.4936C34.1944 16.7243 33.7612 16.7285 33.267 16.4936C32.7729 16.2587 32.4997 16.2481 32.0791 15.8975C31.3853 15.3193 30.9859 14.8687 30.0989 14.7052C29.6425 14.6211 28.9108 14.7052 28.9108 14.7052C28.9108 14.7052 29.8788 13.7265 30.0989 12.9167C30.282 12.2429 29.7028 11.327 30.0989 11.1282C30.8909 10.7308 31.55 11.4197 32.673 11.1282Z" fill="white"/>
<ellipse cx="17.2271" cy="6.95513" rx="2.97027" ry="2.98077" fill="white"/>
<ellipse cx="31.8804" cy="6.95513" rx="2.97027" ry="2.98077" fill="white"/>
<ellipse cx="24.5537" cy="11.9231" rx="4.3564" ry="4.37179" fill="white"/>
</svg>
