<svg width="52" height="41" viewBox="0 0 52 41" fill="none" xmlns="http://www.w3.org/2000/svg">
<ellipse cx="21.7071" cy="20.5" rx="21.7071" ry="20.5" fill="white" fill-opacity="0.4"/>
<path d="M30.0555 22.0769C29.5166 21.6611 29.2203 21.159 28.942 21.0256C28.6637 20.8923 28.3116 20.7628 27.5508 20.7628C27.2248 20.7628 26.4687 20.6654 26.1593 20.7628C25.7219 20.9005 25.3369 21.2133 25.0462 21.5512C24.6465 22.0157 24.5544 22.3623 24.211 22.8653C23.7044 23.6074 23.4874 23.9637 23.0981 24.7051C22.7304 25.4053 22.4337 25.7799 22.2632 26.5448C22.0841 27.3483 21.9847 27.8263 21.9847 28.6474C21.9847 29.2632 21.9356 29.6017 21.9848 30.2243C22.0253 30.7361 21.9442 31.0164 21.9847 31.5384C22.0084 31.8452 22.1173 32.0509 22.2627 32.3259L22.2632 32.3269C22.5412 32.8525 23.265 34.3243 24.4896 34.4294C30.6118 34.9551 38.4041 34.9551 43.692 34.4294C45.0761 34.2918 46.2556 33.6248 46.4749 32.3269C46.5263 32.0228 46.4749 31.8463 46.4749 31.5384V30.2243V28.6474C46.4749 27.8263 46.6012 27.3572 46.4749 26.5448C46.36 25.8055 46.1821 25.1467 45.9181 24.4423C45.6419 23.7054 45.5524 23.5095 45.0835 22.8653C44.6481 22.2673 43.692 21.5512 43.692 21.5512C43.692 21.5512 42.7405 20.8807 42.0222 20.7628C41.5939 20.6924 41.3322 20.6687 40.909 20.7628C40.0828 20.9464 39.9537 21.644 39.2392 22.0769C38.6256 22.4486 38.2359 22.5861 37.5695 22.8653C37.0345 23.0895 36.7431 23.2471 36.178 23.391C34.9188 23.7116 33.627 23.6538 32.8384 23.391C32.3801 23.2382 31.8817 23.0706 31.447 22.8653C30.7949 22.5574 30.6201 22.5125 30.0555 22.0769Z" fill="white"/>
<path d="M22.8195 14.718C21.7832 14.4649 20.8284 13.6667 19.758 13.6667C18.6876 13.6667 17.9941 13.9882 17.2534 14.718C16.6159 15.346 16.519 17.7364 17.2534 19.4487C17.8332 20.8008 18.3 21.3324 19.758 21.8141C20.6813 22.1191 21.2901 22.1248 21.9846 21.8141C22.6791 21.5034 23.063 21.4893 23.6542 21.0257C24.6292 20.2609 25.1906 19.665 26.4371 19.4487C27.0785 19.3375 28.1069 19.4487 28.1069 19.4487C28.1069 19.4487 26.7464 18.1544 26.4371 17.0834C26.1798 16.1922 26.9938 14.9808 26.4371 14.718C25.324 14.1923 24.3978 15.1035 22.8195 14.718Z" fill="white"/>
<path d="M45.9188 14.718C46.9551 14.4649 47.9099 13.6667 48.9803 13.6667C50.0506 13.6667 50.7442 13.9882 51.4849 14.718C52.1224 15.346 52.2193 17.7364 51.4849 19.4487C50.9051 20.8008 50.4383 21.3324 48.9803 21.8141C48.057 22.1191 47.4482 22.1248 46.7537 21.8141C46.0592 21.5034 45.6753 21.4893 45.0841 21.0257C44.1091 20.2609 43.5477 19.665 42.3012 19.4487C41.6598 19.3375 40.6314 19.4487 40.6314 19.4487C40.6314 19.4487 41.9918 18.1544 42.3012 17.0834C42.5585 16.1922 41.7445 14.9808 42.3012 14.718C43.4143 14.1923 44.3405 15.1035 45.9188 14.718Z" fill="white"/>
<ellipse cx="24.2115" cy="9.19872" rx="4.17444" ry="3.94231" fill="white"/>
<ellipse cx="44.8053" cy="9.19872" rx="4.17444" ry="3.94231" fill="white"/>
<ellipse cx="34.5073" cy="15.7692" rx="6.12251" ry="5.78205" fill="white"/>
</svg>
